<svg xmlns="http://www.w3.org/2000/svg" version="1.1" width="1000"
     height="1000">
    <style>
        #light-icon {
        display: inline;
        }
        #dark-icon {
        display: none;
        }

        @media (prefers-color-scheme: dark) {
        #light-icon {
        display: none;
        }
        #dark-icon {
        display: inline;
        }
        }
    </style>
    <g id="light-icon">
        <svg xmlns="http://www.w3.org/2000/svg" version="1.1" width="1000"
             height="1000">
            <g>
                <g transform="matrix(1.6666666666666667,0,0,1.6666666666666667,0,0)">
                    <svg xmlns="http://www.w3.org/2000/svg" version="1.1"
                         width="600" height="600">
                        <svg xmlns="http://www.w3.org/2000/svg" width="600"
                             zoomAndPan="magnify" viewBox="0 0 450 449.999984" height="600"
                             preserveAspectRatio="xMidYMid meet" version="1.0">
                            <defs>
                                <clipPath id="ca43f5a5bc">
                                    <path
                                        d="M 225 0 C 100.734375 0 0 100.734375 0 225 C 0 349.265625 100.734375 450 225 450 C 349.265625 450 450 349.265625 450 225 C 450 100.734375 349.265625 0 225 0 Z M 225 0 "
                                        clip-rule="nonzero"></path>
                                </clipPath>
                                <clipPath id="6032784a63">
                                    <path d="M 67.5 67.5 L 382.5 67.5 L 382.5 382.5 L 67.5 382.5 Z M 67.5 67.5 "
                                          clip-rule="nonzero"></path>
                                </clipPath>
                                <clipPath id="ff01b24786">
                                    <path
                                        d="M 225 0 C 100.734375 0 0 100.734375 0 225 C 0 349.265625 100.734375 450 225 450 C 349.265625 450 450 349.265625 450 225 C 450 100.734375 349.265625 0 225 0 Z M 225 0 "
                                        clip-rule="nonzero"></path>
                                </clipPath>
                                <clipPath id="ee939249a6">
                                    <path
                                        d="M 225 0 C 100.734375 0 0 100.734375 0 225 C 0 349.265625 100.734375 450 225 450 C 349.265625 450 450 349.265625 450 225 C 450 100.734375 349.265625 0 225 0 Z M 225 0 "
                                        clip-rule="nonzero"></path>
                                </clipPath>
                            </defs>
                            <g clip-path="url(#ca43f5a5bc)">
                                <rect x="-45" width="540" fill="#100c08" y="-44.999998" height="539.99998"
                                      fill-opacity="1"></rect>
                            </g>
                            <g clip-path="url(#6032784a63)">
                                <path fill="#f5f5f5"
                                      d="M 228.476562 107.246094 C 290.085938 109.234375 340.765625 158.917969 342.753906 221.523438 L 382.5 224.503906 L 342.753906 228.476562 C 340.765625 290.085938 290.085938 340.765625 228.476562 342.75 L 224.503906 382.5 L 221.523438 342.75 C 158.921875 340.765625 109.234375 290.085938 107.25 228.476562 L 67.5 224.503906 L 107.25 221.523438 C 109.234375 158.921875 158.917969 109.234375 221.523438 107.246094 L 224.503906 67.5 Z M 228.476562 117.183594 L 236.429688 203.636719 L 281.144531 168.859375 L 245.371094 213.574219 L 332.816406 220.53125 C 330.828125 163.890625 285.117188 119.175781 228.476562 117.1875 Z M 332.816406 228.480469 L 245.371094 236.429688 L 281.144531 281.144531 L 236.429688 245.371094 L 228.480469 332.816406 C 285.117188 330.828125 330.832031 285.121094 332.816406 228.476562 Z M 220.53125 332.816406 L 213.574219 245.375 L 168.855469 281.148438 L 203.636719 236.429688 L 117.183594 228.480469 C 119.171875 285.121094 163.886719 330.832031 220.527344 332.820312 Z M 117.1875 220.53125 L 203.636719 213.574219 L 168.859375 168.859375 L 213.574219 203.636719 L 220.53125 117.183594 C 163.894531 119.171875 119.175781 163.890625 117.1875 220.527344 Z M 117.1875 220.53125 "
                                      fill-opacity="1" fill-rule="nonzero"></path>
                            </g>
                            <g clip-path="url(#ff01b24786)">
                                <rect x="-45" width="540" fill="#f5f5f5" y="-44.999998" height="539.99998"
                                      fill-opacity="1"></rect>
                            </g>
                            <path fill="#100c08"
                                  d="M 229.96875 56.78125 C 317.980469 59.621094 390.378906 130.597656 393.21875 220.03125 L 450 224.289062 L 393.21875 229.96875 C 390.378906 317.980469 317.980469 390.378906 229.96875 393.214844 L 224.289062 450 L 220.03125 393.214844 C 130.601562 390.378906 59.621094 317.980469 56.785156 229.96875 L 0 224.289062 L 56.785156 220.03125 C 59.621094 130.601562 130.597656 59.621094 220.03125 56.78125 L 224.289062 0 Z M 229.96875 70.976562 L 241.324219 194.480469 L 305.207031 144.796875 L 254.101562 208.679688 L 379.023438 218.617188 C 376.183594 137.703125 310.882812 73.820312 229.96875 70.980469 Z M 379.023438 229.96875 L 254.105469 241.328125 L 305.207031 305.207031 L 241.328125 254.105469 L 229.96875 379.023438 C 310.882812 376.183594 376.1875 310.886719 379.027344 229.96875 Z M 218.613281 379.027344 L 208.675781 254.105469 L 144.796875 305.210938 L 194.480469 241.328125 L 70.976562 229.972656 C 73.816406 310.886719 137.695312 376.1875 218.609375 379.027344 Z M 70.980469 218.617188 L 194.484375 208.679688 L 144.796875 144.796875 L 208.679688 194.480469 L 218.617188 70.976562 C 137.703125 73.816406 73.824219 137.699219 70.984375 218.613281 Z M 70.980469 218.617188 "
                                  fill-opacity="1" fill-rule="nonzero"></path>
                            <g clip-path="url(#ee939249a6)">
                                <rect x="-45" width="540" fill="#100c08" y="-44.999998" height="539.99998"
                                      fill-opacity="1"></rect>
                            </g>
                            <path fill="#f5f5f5"
                                  d="M 229.96875 56.78125 C 317.980469 59.621094 390.378906 130.597656 393.21875 220.03125 L 450 224.289062 L 393.21875 229.96875 C 390.378906 317.980469 317.980469 390.378906 229.96875 393.214844 L 224.289062 450 L 220.03125 393.214844 C 130.601562 390.378906 59.621094 317.980469 56.785156 229.96875 L 0 224.289062 L 56.785156 220.03125 C 59.621094 130.601562 130.597656 59.621094 220.03125 56.78125 L 224.289062 0 Z M 229.96875 70.976562 L 241.324219 194.480469 L 305.207031 144.796875 L 254.101562 208.679688 L 379.023438 218.617188 C 376.183594 137.703125 310.882812 73.820312 229.96875 70.980469 Z M 379.023438 229.96875 L 254.105469 241.328125 L 305.207031 305.207031 L 241.328125 254.105469 L 229.96875 379.023438 C 310.882812 376.183594 376.1875 310.886719 379.027344 229.96875 Z M 218.613281 379.027344 L 208.675781 254.105469 L 144.796875 305.210938 L 194.480469 241.328125 L 70.976562 229.972656 C 73.816406 310.886719 137.695312 376.1875 218.609375 379.027344 Z M 70.980469 218.617188 L 194.484375 208.679688 L 144.796875 144.796875 L 208.679688 194.480469 L 218.617188 70.976562 C 137.703125 73.816406 73.824219 137.699219 70.984375 218.613281 Z M 70.980469 218.617188 "
                                  fill-opacity="1" fill-rule="nonzero"></path>
                        </svg>
                    </svg>
                </g>
            </g>
        </svg>
    </g>
    <g id="dark-icon">
        <svg xmlns="http://www.w3.org/2000/svg" version="1.1" width="1000"
             height="1000">
            <g clip-path="url(#SvgjsClipPath1111)">
                <rect width="1000" height="1000" fill="#100c08"></rect>
                <g transform="matrix(1.6666666666666667,0,0,1.6666666666666667,0,0)">
                    <svg xmlns="http://www.w3.org/2000/svg" version="1.1"
                         width="600" height="600">
                        <svg xmlns="http://www.w3.org/2000/svg" width="600"
                             zoomAndPan="magnify" viewBox="0 0 450 449.999984" height="600"
                             preserveAspectRatio="xMidYMid meet" version="1.0">
                            <defs>
                                <clipPath id="29b2a82ef2">
                                    <path
                                        d="M 225 0 C 100.734375 0 0 100.734375 0 225 C 0 349.265625 100.734375 450 225 450 C 349.265625 450 450 349.265625 450 225 C 450 100.734375 349.265625 0 225 0 Z M 225 0 "
                                        clip-rule="nonzero"></path>
                                </clipPath>
                                <clipPath id="a8e99f45c4">
                                    <path d="M 67.5 67.5 L 382.5 67.5 L 382.5 382.5 L 67.5 382.5 Z M 67.5 67.5 "
                                          clip-rule="nonzero"></path>
                                </clipPath>
                                <clipPath id="78200b9a9c">
                                    <path
                                        d="M 225 0 C 100.734375 0 0 100.734375 0 225 C 0 349.265625 100.734375 450 225 450 C 349.265625 450 450 349.265625 450 225 C 450 100.734375 349.265625 0 225 0 Z M 225 0 "
                                        clip-rule="nonzero"></path>
                                </clipPath>
                                <clipPath id="SvgjsClipPath1111">
                                    <rect width="1000" height="1000" x="0" y="0" rx="500" ry="500"></rect>
                                </clipPath>
                            </defs>
                            <g clip-path="url(#29b2a82ef2)">
                                <rect x="-45" width="540" fill="#100c08" y="-44.999998" height="539.99998"
                                      fill-opacity="1"></rect>
                            </g>
                            <g clip-path="url(#a8e99f45c4)">
                                <path fill="#f5f5f5"
                                      d="M 228.476562 107.246094 C 290.085938 109.234375 340.765625 158.917969 342.753906 221.523438 L 382.5 224.503906 L 342.753906 228.476562 C 340.765625 290.085938 290.085938 340.765625 228.476562 342.75 L 224.503906 382.5 L 221.523438 342.75 C 158.921875 340.765625 109.234375 290.085938 107.25 228.476562 L 67.5 224.503906 L 107.25 221.523438 C 109.234375 158.921875 158.917969 109.234375 221.523438 107.246094 L 224.503906 67.5 Z M 228.476562 117.183594 L 236.429688 203.636719 L 281.144531 168.859375 L 245.371094 213.574219 L 332.816406 220.53125 C 330.828125 163.890625 285.117188 119.175781 228.476562 117.1875 Z M 332.816406 228.480469 L 245.371094 236.429688 L 281.144531 281.144531 L 236.429688 245.371094 L 228.480469 332.816406 C 285.117188 330.828125 330.832031 285.121094 332.816406 228.476562 Z M 220.53125 332.816406 L 213.574219 245.375 L 168.855469 281.148438 L 203.636719 236.429688 L 117.183594 228.480469 C 119.171875 285.121094 163.886719 330.832031 220.527344 332.820312 Z M 117.1875 220.53125 L 203.636719 213.574219 L 168.859375 168.859375 L 213.574219 203.636719 L 220.53125 117.183594 C 163.894531 119.171875 119.175781 163.890625 117.1875 220.527344 Z M 117.1875 220.53125 "
                                      fill-opacity="1" fill-rule="nonzero"></path>
                            </g>
                            <g clip-path="url(#78200b9a9c)">
                                <rect x="-45" width="540" fill="#f5f5f5" y="-44.999998" height="539.99998"
                                      fill-opacity="1"></rect>
                            </g>
                            <path fill="#100c08"
                                  d="M 229.96875 56.78125 C 317.980469 59.621094 390.378906 130.597656 393.21875 220.03125 L 450 224.289062 L 393.21875 229.96875 C 390.378906 317.980469 317.980469 390.378906 229.96875 393.214844 L 224.289062 450 L 220.03125 393.214844 C 130.601562 390.378906 59.621094 317.980469 56.785156 229.96875 L 0 224.289062 L 56.785156 220.03125 C 59.621094 130.601562 130.597656 59.621094 220.03125 56.78125 L 224.289062 0 Z M 229.96875 70.976562 L 241.324219 194.480469 L 305.207031 144.796875 L 254.101562 208.679688 L 379.023438 218.617188 C 376.183594 137.703125 310.882812 73.820312 229.96875 70.980469 Z M 379.023438 229.96875 L 254.105469 241.328125 L 305.207031 305.207031 L 241.328125 254.105469 L 229.96875 379.023438 C 310.882812 376.183594 376.1875 310.886719 379.027344 229.96875 Z M 218.613281 379.027344 L 208.675781 254.105469 L 144.796875 305.210938 L 194.480469 241.328125 L 70.976562 229.972656 C 73.816406 310.886719 137.695312 376.1875 218.609375 379.027344 Z M 70.980469 218.617188 L 194.484375 208.679688 L 144.796875 144.796875 L 208.679688 194.480469 L 218.617188 70.976562 C 137.703125 73.816406 73.824219 137.699219 70.984375 218.613281 Z M 70.980469 218.617188 "
                                  fill-opacity="1" fill-rule="nonzero"></path>
                        </svg>
                    </svg>
                </g>
            </g>
        </svg>
    </g>
</svg>
